HIERARCHY
ROOT hips
{
  OFFSET 0 10.680822821525009 1.3929502295107734
  CHANNELS 6 Xposition Yposition Zposition Yrotation Xrotation Zrotation
  JOINT spine
  {
    OFFSET -7.042017322922631e-31 0.6058489940359625 0
    CHANNELS 3 Yrotation Xrotation Zrotation
    JOINT chest
    {
      OFFSET 0 1.2699794144455032 0
      CHANNELS 3 Yrotation Xrotation Zrotation
      JOINT upperChest
      {
        OFFSET 0 1.217799211677689 0
        CHANNELS 3 Yrotation Xrotation Zrotation
        JOINT neck
        {
          OFFSET 0 1.5248826104153006 0
          CHANNELS 3 Yrotation Xrotation Zrotation
          JOINT head
          {
            OFFSET 0 0.8197772727844447 0
            CHANNELS 3 Yrotation Xrotation Zrotation
            JOINT leftEye
            {
              OFFSET 0.2793952361220866 0.6769952096623495 0.1830357412467788
              CHANNELS 3 Yrotation Xrotation Zrotation
              End Site
              {
                OFFSET 0.2793952361220866 0.6769952096623495 0.1830357412467788
              }
            }
            JOINT rightEye
            {
              OFFSET -0.27939522230689573 0.676995205357064 0.18303631459760622
              CHANNELS 3 Yrotation Xrotation Zrotation
              End Site
              {
                OFFSET -0.27939522230689573 0.676995205357064 0.18303631459760622
              }
            }
          }
        }
        JOINT leftShoulder
        {
          OFFSET 0.41486978509200423 1.1670505408695453 0
          CHANNELS 3 Yrotation Xrotation Zrotation
          JOINT leftUpperArm
          {
            OFFSET 0.9737926108153417 0 0
            CHANNELS 3 Yrotation Xrotation Zrotation
            JOINT leftLowerArm
            {
              OFFSET 2.5269332222665284 0 0
              CHANNELS 3 Yrotation Xrotation Zrotation
              JOINT leftHand
              {
                OFFSET 2.4263782738425914 0 0
                CHANNELS 3 Yrotation Xrotation Zrotation
                JOINT leftIndexProximal
                {
                  OFFSET 0.724320348022514 0.08170607082582437 0.20360061616140124
                  CHANNELS 3 Yrotation Xrotation Zrotation
                  JOINT leftIndexIntermediate
                  {
                    OFFSET 0.36548960630744587 -0.010566596513783999 -0.01414783573280308
                    CHANNELS 3 Yrotation Xrotation Zrotation
                    JOINT leftIndexDistal
                    {
                      OFFSET 0.22502819650693362 -0.007863819831430696 -0.007567681939621526
                      CHANNELS 3 Yrotation Xrotation Zrotation
                      End Site
                      {
                        OFFSET 0.22502819650693362 -0.007863819831430696 -0.007567681939621526
                      }
                    }
                  }
                }
                JOINT leftLittleProximal
                {
                  OFFSET 0.6720322998298205 0.08170601055037707 -0.3230036039466837
                  CHANNELS 3 Yrotation Xrotation Zrotation
                  JOINT leftLittleIntermediate
                  {
                    OFFSET 0.34583592281688713 5.476543019078406e-8 1.3869203337180114e-7
                    CHANNELS 3 Yrotation Xrotation Zrotation
                    JOINT leftLittleDistal
                    {
                      OFFSET 0.19925728062053938 0.003098047439490381 0.0038303983709246925
                      CHANNELS 3 Yrotation Xrotation Zrotation
                      End Site
                      {
                        OFFSET 0.19925728062053938 0.003098047439490381 0.0038303983709246925
                      }
                    }
                  }
                }
                JOINT leftMiddleProximal
                {
                  OFFSET 0.7300436596551069 0.0817073395107144 0.022661722987926763
                  CHANNELS 3 Yrotation Xrotation Zrotation
                  JOINT leftMiddleIntermediate
                  {
                    OFFSET 0.40758254347686607 -0.0000012383587111308714 2.408460318820138e-7
                    CHANNELS 3 Yrotation Xrotation Zrotation
                    JOINT leftMiddleDistal
                    {
                      OFFSET 0.2514490105498507 0.0000013869132886590307 9.738618134136345e-8
                      CHANNELS 3 Yrotation Xrotation Zrotation
                      End Site
                      {
                        OFFSET 0.2514490105498507 0.0000013869132886590307 9.738618134136345e-8
                      }
                    }
                  }
                }
                JOINT leftRingProximal
                {
                  OFFSET 0.7217261161191838 0.08170601902187746 -0.15043395722184966
                  CHANNELS 3 Yrotation Xrotation Zrotation
                  JOINT leftRingIntermediate
                  {
                    OFFSET 0.37808807487521556 0.0000013754022405443322 2.2046919317952884e-7
                    CHANNELS 3 Yrotation Xrotation Zrotation
                    JOINT leftRingDistal
                    {
                      OFFSET 0.21812105442344254 -0.002713483731960231 -0.004991354517454624
                      CHANNELS 3 Yrotation Xrotation Zrotation
                      End Site
                      {
                        OFFSET 0.21812105442344254 -0.002713483731960231 -0.004991354517454624
                      }
                    }
                  }
                }
                JOINT leftThumbProximal
                {
                  OFFSET 0.10793587079521427 -0.1652791240518252 -0.07775251827190094
                  CHANNELS 3 Yrotation Xrotation Zrotation
                  JOINT leftThumbIntermediate
                  {
                    OFFSET 0.40355819082296684 -0.017484006740276614 0.3177776014416309
                    CHANNELS 3 Yrotation Xrotation Zrotation
                    JOINT leftThumbDistal
                    {
                      OFFSET 0.2318764658022603 -0.018510186824293617 0.21396001800186287
                      CHANNELS 3 Yrotation Xrotation Zrotation
                      End Site
                      {
                        OFFSET 0.2318764658022603 -0.018510186824293617 0.21396001800186287
                      }
                    }
                  }
                }
              }
            }
          }
        }
        JOINT rightShoulder
        {
          OFFSET -0.4148697850920044 1.1670505408695453 0
          CHANNELS 3 Yrotation Xrotation Zrotation
          JOINT rightUpperArm
          {
            OFFSET -0.9737926108153414 0 0
            CHANNELS 3 Yrotation Xrotation Zrotation
            JOINT rightLowerArm
            {
              OFFSET -2.5269332222665293 0 0
              CHANNELS 3 Yrotation Xrotation Zrotation
              JOINT rightHand
              {
                OFFSET -2.42637827384259 0 0
                CHANNELS 3 Yrotation Xrotation Zrotation
                JOINT rightIndexProximal
                {
                  OFFSET -0.724320348022514 0.08170607082582437 0.20360061616140124
                  CHANNELS 3 Yrotation Xrotation Zrotation
                  JOINT rightIndexIntermediate
                  {
                    OFFSET -0.36548960630744587 -0.010566596513783999 -0.01414783573280308
                    CHANNELS 3 Yrotation Xrotation Zrotation
                    JOINT rightIndexDistal
                    {
                      OFFSET -0.22502819650693362 -0.007863819831430696 -0.007567681939621526
                      CHANNELS 3 Yrotation Xrotation Zrotation
                      End Site
                      {
                        OFFSET -0.22502819650693362 -0.007863819831430696 -0.007567681939621526
                      }
                    }
                  }
                }
                JOINT rightLittleProximal
                {
                  OFFSET -0.6720322998298205 0.08170601055037707 -0.3230036039466837
                  CHANNELS 3 Yrotation Xrotation Zrotation
                  JOINT rightLittleIntermediate
                  {
                    OFFSET -0.34583592281688713 5.476543019078406e-8 1.3869203337180114e-7
                    CHANNELS 3 Yrotation Xrotation Zrotation
                    JOINT rightLittleDistal
                    {
                      OFFSET -0.19925728062053938 0.003098047439490381 0.0038303983709246925
                      CHANNELS 3 Yrotation Xrotation Zrotation
                      End Site
                      {
                        OFFSET -0.19925728062053938 0.003098047439490381 0.0038303983709246925
                      }
                    }
                  }
                }
                JOINT rightMiddleProximal
                {
                  OFFSET -0.7300436596551069 0.0817073395107144 0.022661722987926763
                  CHANNELS 3 Yrotation Xrotation Zrotation
                  JOINT rightMiddleIntermediate
                  {
                    OFFSET -0.40758254347686607 -0.0000012383587111308714 2.408460318820138e-7
                    CHANNELS 3 Yrotation Xrotation Zrotation
                    JOINT rightMiddleDistal
                    {
                      OFFSET -0.2514490105498507 0.0000013869132886590307 9.738618134136345e-8
                      CHANNELS 3 Yrotation Xrotation Zrotation
                      End Site
                      {
                        OFFSET -0.2514490105498507 0.0000013869132886590307 9.738618134136345e-8
                      }
                    }
                  }
                }
                JOINT rightRingProximal
                {
                  OFFSET -0.7217261161191838 0.08170601902187746 -0.15043395722184966
                  CHANNELS 3 Yrotation Xrotation Zrotation
                  JOINT rightRingIntermediate
                  {
                    OFFSET -0.37808807487521556 0.0000013754022405443322 2.2046919317952884e-7
                    CHANNELS 3 Yrotation Xrotation Zrotation
                    JOINT rightRingDistal
                    {
                      OFFSET -0.21812105442344254 -0.002713483731960231 -0.004991354517454624
                      CHANNELS 3 Yrotation Xrotation Zrotation
                      End Site
                      {
                        OFFSET -0.21812105442344254 -0.002713483731960231 -0.004991354517454624
                      }
                    }
                  }
                }
                JOINT rightThumbProximal
                {
                  OFFSET -0.10793587079521427 -0.1652791240518252 -0.07775251827190094
                  CHANNELS 3 Yrotation Xrotation Zrotation
                  JOINT rightThumbIntermediate
                  {
                    OFFSET -0.40355819082296684 -0.017484006740276614 0.3177776014416309
                    CHANNELS 3 Yrotation Xrotation Zrotation
                    JOINT rightThumbDistal
                    {
                      OFFSET -0.2318764658022603 -0.018510186824293617 0.21396001800186287
                      CHANNELS 3 Yrotation Xrotation Zrotation
                      End Site
                      {
                        OFFSET -0.2318764658022603 -0.018510186824293617 0.21396001800186287
                      }
                    }
                  }
                }
              }
            }
          }
        }
      }
    }
  }
  JOINT leftUpperLeg
  {
    OFFSET 0.8486251390888677 -0.4421577294694363 0
    CHANNELS 3 Yrotation Xrotation Zrotation
    JOINT leftLowerLeg
    {
      OFFSET 0 -4.10147812638609 0
      CHANNELS 3 Yrotation Xrotation Zrotation
      JOINT leftFoot
      {
        OFFSET -0.0002543926476658853 -4.77292286812444 0.007402811231737388
        CHANNELS 3 Yrotation Xrotation Zrotation
        JOINT leftToes
        {
          OFFSET 0 -0.7027875951174846 1.2062924140498823
          CHANNELS 3 Yrotation Xrotation Zrotation
          End Site
          {
            OFFSET 0 -0.7027875951174846 1.2062924140498823
          }
        }
      }
    }
  }
  JOINT rightUpperLeg
  {
    OFFSET -0.8486251390888677 -0.4421577294694363 0
    CHANNELS 3 Yrotation Xrotation Zrotation
    JOINT rightLowerLeg
    {
      OFFSET 0 -4.10147812638609 0
      CHANNELS 3 Yrotation Xrotation Zrotation
      JOINT rightFoot
      {
        OFFSET 0.0002543926476658853 -4.77292286812444 0.007402811231737388
        CHANNELS 3 Yrotation Xrotation Zrotation
        JOINT rightToes
        {
          OFFSET 0 -0.7027875951174846 1.2062924140498823
          CHANNELS 3 Yrotation Xrotation Zrotation
          End Site
          {
            OFFSET 0 -0.7027875951174846 1.2062924140498823
          }
        }
      }
    }
  }
}
MOTION
Frames: 4
Frame Time: 0.03333333333333333
-0.05741154029965401 -1.832413168815048 0.054497454315423965 -10.100244961645368 -18.99500936684259 5.96258488320385 -0.34688182083155716 24.482005203131763 -2.8913437575658403 0.6281279808302326 16.221002690656185 -1.239048373043183 0 0 0 1.6333054389053347 -6.315864427553687 -1.5777374371630235 6.015225203714552 -18.93102295873954 0.7662005433619791 0 0 0 0 0 0 -19.878374093606382 5.22359039332081 -6.828419644565815 -4.7613733823563535 -32.719000709373795 -59.71615390040645 -39.126938792424674 0.16598145959041086 0.46708375347759395 -25.233325269556747 26.5473377018866 4.0689576926343145 -5.277525319841443 0.10549571975346932 -0.03854336546656451 1.7996902391203298 0.3263331551393502 -20.556111971667217 0.6630785915556254 0.04306558407674078 -7.433954662051629 17.117802522931967 -1.9900190327121459 8.272060001142576 2.6138622902706605 0.7165032775214815 -30.65553939498751 -1.3211982524845387 0.17324687837658312 14.939035423759368 0.43832373288069165 0.08330099645350132 0.482033122566683 0.892226680441123 0.07825778386174403 -10.025992638135945 0.5296921418322116 0.027435625301982385 -5.932721957222778 6.6849744730736305 0.022208564080663504 0.754619928849016 0.9759251048029696 0.09376429847863442 -10.977767609587614 0.40592791099253916 0.01610001840327266 -4.5431006209771665 -8.602093439635299 -13.06925148844402 17.540946083778824 25.93193924104722 9.948484219995567 7.730431185140809 -0.2554483566926702 -7.355127987833295 13.184299065574251 30.301730222116802 2.2576167408100725 1.0274950995321763 33.357164290616126 -14.379653315847074 45.25084009833135 31.98164216224014 0.1123337253068342 -0.39200189723585616 5.721403927780208 -2.5715663398581374 -36.84520076513791 -2.230900399817363 0.048898360735489914 -0.717148228995772 -1.9916843192178237 0.5430860780517298 30.50199283978117 -0.6438207714005126 0.0531828720677846 9.445040574473294 -18.261283412006385 -2.193568911405776 -8.223997865362252 -1.927164386773236 0.5059001691008116 29.414896083356027 -0.32387701406645986 0.01339720023435878 4.735390486611655 -7.490312487079749 0.11788038371692452 0.585021265981327 -1.7883477471464237 0.43128017280577646 27.114493101385793 -0.2000382480246577 0.005104862298209286 2.9224542877540176 -8.281445273926064 -0.18977787346870745 -2.45084091154701 -1.2557305203574747 0.20636341950405301 18.66617370241238 -0.7530373766057349 0.0729449726178764 11.065738639224648 8.187053511129266 -6.826667428956628 -5.103976671169782 -14.560092748519825 6.178758884007995 -3.5228116747748004 -5.724992167948877 -5.4981103797103845 -14.09790451871126 10.049235393511452 -60.98143871921692 0.7846641472421083 -7.189624796391433 73.99522931118658 -7.066299695283757 -1.5109079596904442 15.967635710505187 -13.898541105598378 0.0000020163936043834264 -3.2031751993178887 -0.0000012036860988338023 15.618358717048805 -59.085909593477325 -15.03682154227142 -26.331172723546985 65.7050409183388 -30.625756213024804 2.380227359846726 18.25636202692148 19.8661554631635 0.000007989861934193933 -0.1270889138321875 -0.00000956840530822513
-0.05822591856122017 -1.8318257054361418 0.05480573698878288 -10.10928203879658 -18.977644899733622 5.965021059018264 -0.37582763548235076 24.58356379689947 -2.919837031876392 0.5718691070826002 16.448849829831534 -1.250168276957829 0 0 0 1.6594349333245566 -6.773033033499193 -1.5450084659819954 5.977065696361753 -18.424064965841957 0.7291342228445141 0 0 0 0 0 0 -19.63539904848391 5.222404272637388 -7.0360922263928956 -5.096564977744241 -32.303455370721416 -58.70285659410038 -40.2665820259881 0.17540018552032993 0.47837145323204766 -24.536395827736495 24.741543442968048 3.397107462147169 -5.168959953253887 -0.039785418220581376 -1.1298244664980825 1.8559823697455193 0.34783133428090063 -21.229460419643846 0.661645110330783 0.04288292315580997 -7.418052006255363 17.5618760193766 -0.6472808604620924 3.298862500366743 2.7615408156048757 0.8074343793179533 -32.59276997757869 -1.3211981457907171 0.1732493596675858 14.939037073600264 0.6228832283553585 0.01918063230099867 -1.528611867190262 1.0754455066678519 0.11409651786375828 -12.113395349195452 0.5282725706375216 0.027295346273839102 -5.9167025474142 6.893340478954603 0.22686295150447838 -1.8915601552683698 1.2096819419379308 0.14479482844022254 -13.652634612301597 0.40451058296968656 0.015979357837472088 -4.527173487775419 -7.108204631744652 -13.237899627490892 14.792553843543251 25.931946993535043 9.948483353188157 7.73044195868403 -0.25545724954515214 -7.355149509259149 13.18429403657777 29.942029459605294 2.271843397799836 1.1933245162295243 33.211240633848114 -14.327693698272373 44.750755906540945 32.700909902355555 0.11730592624523514 -0.3998415239153015 6.360850425156522 -3.6100278324680564 -36.15176692577958 -2.4130668820092507 0.05085247259439658 1.9439838298150078 -1.9916847458659315 0.5430956300735005 30.50198054498692 -0.6438110603344389 0.05318524662676123 9.445049838670787 -18.401391911514985 -0.5068985896545617 -2.4795250118343373 -1.9541819312482835 0.5212668444887866 29.868642035801365 -0.32201840803270326 0.013242722228592307 4.708190754690126 -7.654785033464381 0.45208514709916 4.228828690875581 -1.8367129743673338 0.4564577795424771 27.910627696805456 -0.1979779742235446 0.005003250310578453 2.89250992829217 -8.517537467943264 0.3357562254063544 2.45494661411205 -1.3557409612618958 0.2416790630462559 20.21467154762563 -0.7552697892185317 0.07337781619908111 11.099184320041466 7.818102020396644 -6.702983724342804 -4.777019038681918 -16.79493659654188 6.1608552817147535 -2.67669049993658 -5.799869062375353 -5.420683029903732 -13.695082008007626 10.055689530439482 -60.96232360101736 0.781917824026245 -7.148378376221259 74.03411849274829 -7.024522850518297 -1.5195453953996794 15.987132614418192 -13.949919134626281 -7.41450636117205e-7 -3.223966759739744 0.000006043083635675477 15.59486131014442 -59.08428767673614 -14.96319697901359 -26.3653658348149 65.75228881914168 -30.660245092065363 2.3818518409617875 18.246789453889566 19.870960984474458 0.000001173910221225076 -0.130095085092636 -1.6816732993544764e-8
-0.05991574004292488 -1.829865904715927 0.05467361956834793 -10.128313248345096 -18.970682285744022 5.972631484944683 -0.42446824688876383 24.761592932020204 -2.9796830124611855 0.46878087023829773 16.935592247209975 -1.2944256018639604 0 0 0 1.7187863132067664 -7.737371297350297 -1.4573809133253002 5.9323576759794046 -17.29028717058251 0.6661848039300652 0 0 0 0 0 0 -19.052750503977997 5.2651626230396635 -7.4061651784232065 -5.379481740334906 -31.67739473758092 -57.028383849614215 -42.531382322275554 0.19472550626242732 0.500331930580623 -23.436231369275475 22.41713657080557 2.563989510883232 -4.968202646418966 -0.3044762451749327 -3.1622362507161816 1.9538384867457272 0.3870007673275152 -22.407350882179554 0.6539333669379752 0.04188850336943608 -7.3311918255849235 18.124366023010886 2.247245623235588 -7.181931795258338 3.050257549075302 1.0061972802149537 -36.50748483304897 -1.3211959052204618 0.1732602319910693 14.939035423759368 0.9965939765464409 -0.0893636566707875 -5.557002002163549 1.4449653613546465 0.20789976853948142 -16.37549531507754 0.5205187995263764 0.026486675799420965 -5.829692819611913 7.292294141199365 0.6709072477467927 -7.302205613057466 1.6849164656415772 0.2848643248089992 -19.19238971927038 0.3967598595107865 0.015374615933968336 -4.44036125313712 -3.3112126907843753 -13.44220850403636 8.391734568611433 25.931970250998646 9.948476418728983 7.730465149786489 -0.25544467118518743 -7.355139178974608 13.18429319841167 29.278934889328184 2.2956738593201584 1.5409255859087252 32.47525786450978 -14.223875686445345 43.854597667377774 34.43158182360624 0.12968779399610983 -0.41850364912148474 7.000712916072184 -4.773277594384248 -35.58021065942546 -2.8029292526288003 0.0835908662540414 7.6595266561985245 -1.991685599162147 0.543089760115986 30.501997515869977 -0.6438119140545348 0.0531690916215906 9.445053767892764 -18.138880879308743 2.985299681690974 9.94160867598669 -2.0046022014931126 0.5507290343981602 30.721004977238927 -0.30937471617780177 0.012220828519958845 4.522910245717599 -7.936721538845421 1.1871545295491748 12.066977660563449 -1.9324653023556446 0.5088903617431633 29.503917222774238 -0.1849053038256587 0.00436271580173195 2.7012895047328582 -8.872742690002323 1.4957141807787526 13.018868690905332 -1.5603541281915898 0.32362784978311915 23.43328383027655 -0.7516226854953257 0.07266350723186216 11.044902334331063 6.963366146228357 -6.415341751597765 -4.025383082264971 -22.081275973767656 6.091387432253658 -0.8391735685186287 -5.970626287438179 -5.239846517314155 -12.76524307379053 10.064306500693839 -60.905714247786484 0.7576138487354529 -7.02682501396262 74.08039466526533 -6.906581831624082 -1.5396838038240814 16.056531952465214 -14.052343004057056 0.0000011770156583157804 -3.2669765009825844 0.000004005888138695906 15.543381762351784 -59.0634289495076 -14.842371345839885 -26.4246664297691 65.81599888697741 -30.707404472922438 2.4303934037738038 18.227863417885487 19.856263565969847 0.0000012673404781695872 -0.12504298707884462 -0.0000025757793168082985
-0.06145324930548668 -1.827159377005966 0.05378586798906326 -10.14160829368581 -18.982858022415822 5.981918040222917 -0.4616745227677011 24.919066773848655 -3.0361991310948726 0.3751542686970333 17.465852327771046 -1.3589447673409099 0 0 0 1.7882367852021803 -8.7746340301333 -1.3407136385173202 5.936512263612425 -16.006865906823993 0.6182340056902292 0 0 0 0 0 0 -18.353637163855844 5.359742687551501 -7.729006824125017 -5.337376955078924 -31.29288855119916 -55.73497947707973 -44.73484814263633 0.21436281222395873 0.5209313730327527 -22.41203112169459 21.126780180619864 2.7254412396465493 -4.749802918120277 -0.56761219847204 -5.2460790457403395 2.05550744762937 0.4302032670013072 -23.64140425652194 0.6478536331046307 0.041110715373674334 -7.262675757797473 18.162592597569972 5.09498235292976 -17.49771289301127 3.3238131827070876 1.2234182649472864 -40.4077866160525 -1.321205080889101 0.17326184616424958 14.939040373281978 1.3774390098537028 -0.1708270861919164 -9.583873342717395 1.8040215251426794 0.3279685585374187 -20.607720141644116 0.5144268255261621 0.025875230397575593 -5.7609929239425055 7.64505514625676 1.1420123808982736 -12.670700691306124 2.139270885395288 0.4677570408569456 -24.667326455660042 0.39066596541535087 0.014910019646889032 -4.371863295727319 0.6623965363756104 -13.34304828242943 2.3638131435285055 25.93198268067783 9.948466017040495 7.730440633367951 -0.25543487903390905 -7.355135735546481 13.184307394460133 28.62821389615287 2.326127759646505 1.886414191896815 31.301753354726447 -14.317075709800443 43.131874474286676 36.2041304434821 0.1429067821121174 -0.4371474065103899 7.2069434797132175 -5.088210392707765 -35.816933484874816 -3.200683292427522 0.1581534178294751 13.571410482024799 -1.9916690545156888 0.5430788740129743 30.50200513457571 -0.6438079122415828 0.05317361062076569 9.445048996471037 -17.134888910976336 6.261203504599222 22.939946585795976 -2.0529652914732295 0.5799399740718776 31.545800973725267 -0.29225464281811164 0.010910446028795793 4.272179571057475 -8.126233937942285 1.959853299193434 20.181683819104368 -2.0267440686487723 0.5639711565926471 31.097709637185925 -0.16731558457714565 0.0035670950611782657 2.444394250969222 -9.023353847070123 2.704829709496789 23.964398054918988 -1.7637977166069991 0.4188127868140523 26.712556612168324 -0.74389657606245 0.07117571209964034 10.93003924875738 6.047517620855779 -6.105380998713725 -3.2287539152980385 -27.903725244029896 5.961462697468294 0.94714977052416 -6.1495243590675495 -5.043898901317504 -11.773981929014191 10.066783326797966 -60.843603983590356 0.7017786001164189 -6.850465520934944 74.09287508122237 -6.731930177353196 -1.562762206731202 16.155842606930783 -14.153690425168797 -9.57956832031586e-7 -3.3100331970382473 -6.664137773165501e-7 15.493246036186362 -59.0233949633726 -14.755485253876191 -26.479569947317135 65.84013529468706 -30.74062074123344 2.50658030988907 18.220764213444536 19.827765125927442 0.000007483835991925117 -0.10985454207048741 -0.000001251293793963716
